<svg width="31" height="11" viewBox="0 0 31 11" version="1.1" xmlns="http://www.w3.org/2000/svg" xmlns:xlink="http://www.w3.org/1999/xlink">
<title>icn-time</title>
<desc>Created using Figma</desc>
<g id="Canvas" transform="translate(-3510 364)">
<g id="icn-time" opacity="0.9">
<g id="12:30">
<use xlink:href="#path0_fill" transform="translate(3509 -366)" fill="#FFFFFF"/>
</g>
</g>
</g>
<defs>
<path id="path0_fill" d="M 4.62744 12.0605L 3.44678 12.0605L 3.44678 4.23389L 1.0791 5.10352L 1.0791 4.03711L 4.44336 2.77393L 4.62744 2.77393L 4.62744 12.0605ZM 14.1235 12.0605L 8.06787 12.0605L 8.06787 11.2163L 11.2671 7.66162C 11.741 7.12419 12.0669 6.68831 12.2446 6.354C 12.4266 6.01546 12.5176 5.66634 12.5176 5.30664C 12.5176 4.82422 12.3716 4.42855 12.0796 4.11963C 11.7876 3.81071 11.3983 3.65625 10.9116 3.65625C 10.3276 3.65625 9.87272 3.82341 9.54688 4.15771C 9.22526 4.48779 9.06445 4.94906 9.06445 5.5415L 7.89014 5.5415C 7.89014 4.69092 8.16309 4.00326 8.70898 3.47852C 9.25911 2.95378 9.99333 2.69141 10.9116 2.69141C 11.7707 2.69141 12.4499 2.91781 12.9492 3.37061C 13.4486 3.81917 13.6982 4.41797 13.6982 5.16699C 13.6982 6.07682 13.1185 7.16016 11.959 8.41699L 9.4834 11.1021L 14.1235 11.1021L 14.1235 12.0605ZM 15.4502 11.4448C 15.4502 11.2417 15.5094 11.0724 15.6279 10.937C 15.7507 10.8016 15.9326 10.7339 16.1738 10.7339C 16.415 10.7339 16.597 10.8016 16.7197 10.937C 16.8467 11.0724 16.9102 11.2417 16.9102 11.4448C 16.9102 11.6395 16.8467 11.8024 16.7197 11.9336C 16.597 12.0648 16.415 12.1304 16.1738 12.1304C 15.9326 12.1304 15.7507 12.0648 15.6279 11.9336C 15.5094 11.8024 15.4502 11.6395 15.4502 11.4448ZM 15.4565 5.83984C 15.4565 5.63672 15.5158 5.46745 15.6343 5.33203C 15.757 5.19661 15.939 5.12891 16.1802 5.12891C 16.4214 5.12891 16.6034 5.19661 16.7261 5.33203C 16.853 5.46745 16.9165 5.63672 16.9165 5.83984C 16.9165 6.03451 16.853 6.19743 16.7261 6.32861C 16.6034 6.4598 16.4214 6.52539 16.1802 6.52539C 15.939 6.52539 15.757 6.4598 15.6343 6.32861C 15.5158 6.19743 15.4565 6.03451 15.4565 5.83984ZM 20.2236 6.86816L 21.106 6.86816C 21.6603 6.8597 22.0962 6.7137 22.4136 6.43018C 22.731 6.14665 22.8896 5.76367 22.8896 5.28125C 22.8896 4.19792 22.3501 3.65625 21.271 3.65625C 20.7632 3.65625 20.3569 3.80225 20.0522 4.09424C 19.7518 4.382 19.6016 4.76497 19.6016 5.24316L 18.4272 5.24316C 18.4272 4.51107 18.6938 3.90381 19.2271 3.42139C 19.7645 2.93473 20.4458 2.69141 21.271 2.69141C 22.1427 2.69141 22.8262 2.92204 23.3213 3.3833C 23.8164 3.84456 24.064 4.48568 24.064 5.30664C 24.064 5.70866 23.9328 6.09798 23.6704 6.47461C 23.4123 6.85124 23.0589 7.13265 22.6104 7.31885C 23.1182 7.47965 23.5096 7.74626 23.7847 8.11865C 24.064 8.49105 24.2036 8.94596 24.2036 9.4834C 24.2036 10.3128 23.9328 10.9709 23.3911 11.4575C 22.8494 11.9442 22.1449 12.1875 21.2773 12.1875C 20.4098 12.1875 19.7031 11.9526 19.1572 11.4829C 18.6156 11.0132 18.3447 10.3932 18.3447 9.62305L 19.5254 9.62305C 19.5254 10.1097 19.6841 10.499 20.0015 10.791C 20.3188 11.083 20.7441 11.229 21.2773 11.229C 21.8444 11.229 22.2782 11.0809 22.5786 10.7847C 22.8791 10.4884 23.0293 10.0632 23.0293 9.50879C 23.0293 8.97135 22.8643 8.55876 22.5342 8.271C 22.2041 7.98324 21.728 7.83512 21.106 7.82666L 20.2236 7.82666L 20.2236 6.86816ZM 31.6113 8.11865C 31.6113 9.49398 31.3765 10.516 30.9067 11.1846C 30.437 11.8532 29.7028 12.1875 28.7041 12.1875C 27.7181 12.1875 26.9881 11.8617 26.5142 11.21C 26.0402 10.554 25.7948 9.5765 25.7778 8.27734L 25.7778 6.70947C 25.7778 5.35107 26.0127 4.3418 26.4824 3.68164C 26.9521 3.02148 27.6885 2.69141 28.6914 2.69141C 29.6859 2.69141 30.418 3.01091 30.8877 3.6499C 31.3574 4.28467 31.5986 5.26644 31.6113 6.59521L 31.6113 8.11865ZM 30.437 6.5127C 30.437 5.51823 30.2974 4.7946 30.0181 4.3418C 29.7388 3.88477 29.2965 3.65625 28.6914 3.65625C 28.0905 3.65625 27.6525 3.88265 27.3774 4.33545C 27.1024 4.78825 26.9606 5.48438 26.9521 6.42383L 26.9521 8.30273C 26.9521 9.30143 27.096 10.0399 27.3838 10.5181C 27.6758 10.992 28.1159 11.229 28.7041 11.229C 29.2839 11.229 29.7134 11.0047 29.9927 10.5562C 30.2762 10.1076 30.4243 9.40088 30.437 8.43604L 30.437 6.5127Z"/>
</defs>
</svg>
