<svg width="22" height="23" viewBox="0 0 22 23" version="1.1" xmlns="http://www.w3.org/2000/svg" xmlns:xlink="http://www.w3.org/1999/xlink">
<title>icn-download</title>
<desc>Created using Figma</desc>
<g id="Canvas" transform="translate(-3490 12)">
<g id="icn-download">
<g id="Vector">
<use xlink:href="#path0_fill" transform="translate(3496.27 -0.924574)" fill="#828282"/>
</g>
<g id="Vector">
<use xlink:href="#path1_fill" transform="translate(3490 -12)" fill="#828282"/>
</g>
</g>
</g>
<defs>
<path id="path0_fill" d="M 9.19892 6.83886C 8.86192 6.50385 8.31781 6.50609 7.9836 6.84386L 5.54297 9.3102L 5.54297 0.861318C 5.54297 0.385612 5.15823 0 4.6836 0C 4.20896 0 3.82422 0.385612 3.82422 0.861318L 3.82422 9.22334L 1.46953 6.84386C 1.13532 6.50618 0.591209 6.50385 0.254205 6.83886C -0.0827559 7.17383 -0.0850331 7.71918 0.249221 8.05694L 2.89842 10.734C 3.38633 11.2271 4.03558 11.9246 4.72656 11.9246C 5.41754 11.9246 6.0668 11.2271 6.55476 10.734L 9.20391 8.05694C 9.53812 7.71918 9.53588 7.17383 9.19892 6.83886Z"/>
<path id="path1_fill" d="M 19.8516 6.44464L 19.8516 5.87083C 19.8516 2.63365 17.2239 0 13.994 0C 12.5875 0 11.2276 0.507144 10.1648 1.42807C 9.46172 2.03728 8.91765 2.80105 8.57098 3.64988C 8.03808 3.37693 7.44292 3.22994 6.83203 3.22994C 4.72334 3.22994 3.00781 4.94935 3.00781 7.06281L 3.00781 7.84609C 1.28812 8.23256 0 9.76218 0 11.5847C 0 12.6085 0.386676 13.5686 1.08883 14.2881C 1.79957 15.0165 2.75576 15.4176 3.78125 15.4176L 4.08203 15.4176C 4.55666 15.4176 4.94141 15.032 4.94141 14.5563C 4.94141 14.0806 4.55666 13.695 4.08203 13.695L 3.78125 13.695C 2.6247 13.695 1.71875 12.768 1.71875 11.5847C 1.71875 10.4211 2.67957 9.4745 3.86057 9.4745L 3.86719 9.4745C 4.34182 9.4745 4.72656 9.08889 4.72656 8.61318L 4.72656 7.06281C 4.72656 5.89921 5.67106 4.95258 6.83203 4.95258C 7.43514 4.95258 8.01054 5.21321 8.41075 5.66764C 8.63135 5.91812 8.97656 6.01812 9.29642 5.92427C 9.61632 5.83043 9.85321 5.55968 9.90425 5.22954C 10.2133 3.23029 11.9715 1.72264 13.9939 1.72264C 16.2761 1.72264 18.1328 3.58351 18.1328 5.87083L 18.1328 6.93016C 18.1328 7.24885 18.3084 7.54153 18.5893 7.69097C 19.6329 8.24613 20.2812 9.32553 20.2812 10.5081C 20.2812 12.005 19.2662 13.2827 17.8127 13.6151C 17.35 13.721 17.0605 14.1827 17.1661 14.6465C 17.2717 15.1103 17.7324 15.4005 18.1951 15.2946C 19.2595 15.0511 20.2253 14.4459 20.9145 13.5903C 21.6145 12.7214 22 11.6268 22 10.5081C 22 8.86585 21.1887 7.35294 19.8516 6.44464Z"/>
</defs>
</svg>
