<svg width="8" height="13" viewBox="0 0 8 13" version="1.1" xmlns="http://www.w3.org/2000/svg" xmlns:xlink="http://www.w3.org/1999/xlink">
<title>icn-battery</title>
<desc>Created using Figma</desc>
<g id="Canvas" transform="translate(-3492 366)">
<g id="icn-battery">
<mask id="mask0_outline" mask-type="alpha">
<g id="battery mask">
<use xlink:href="#path0_fill" transform="translate(3492 -366)" fill="#FFFFFF"/>
</g>
</mask>
<g id="Rectangle-path" mask="url(#mask0_outline)">
<use xlink:href="#path1_fill" transform="translate(3492 -356)" fill="#FFFFFF" fill-opacity="0.9"/>
</g>
<g id="Rectangle-path" mask="url(#mask0_outline)">
<use xlink:href="#path1_fill" transform="translate(3492 -359)" fill="#FFFFFF" fill-opacity="0.9"/>
</g>
<g id="Rectangle-path" mask="url(#mask0_outline)">
<use xlink:href="#path1_fill" transform="translate(3492 -362)" fill="#FFFFFF" fill-opacity="0.3"/>
</g>
<g id="Rectangle-path" mask="url(#mask0_outline)">
<use xlink:href="#path1_fill" transform="translate(3492 -365)" fill="#FFFFFF" fill-opacity="0.3"/>
</g>
<g id="Rectangle-path" mask="url(#mask0_outline)">
<use xlink:href="#path2_fill" transform="translate(3494 -366)" fill="#FFFFFF" fill-opacity="0.3"/>
</g>
</g>
</g>
<defs>
<path id="path0_fill" fill-rule="evenodd" d="M 7 1L 6 1L 6 0L 2 0L 2 1L 1 1C 0.4 1 0 1.4 0 2L 0 12C 0 12.6 0.4 13 1 13L 7 13C 7.6 13 8 12.6 8 12L 8 2C 8 1.4 7.6 1 7 1Z"/>
<path id="path1_fill" fill-rule="evenodd" d="M 0 0L 0 3L 8 3L 8 0L 0 0Z"/>
<path id="path2_fill" fill-rule="evenodd" d="M 0 0L 0 1L 4 1L 4 0L 0 0Z"/>
</defs>
</svg>
