<svg width="27" height="36" viewBox="0 0 27 36" version="1.1" xmlns="http://www.w3.org/2000/svg" xmlns:xlink="http://www.w3.org/1999/xlink">
<title>pdf-icon</title>
<desc>Created using Figma</desc>
<g id="Canvas" transform="translate(-3248 18)">
<g id="pdf-icon">
<g id="Vector">
<use xlink:href="#path0_fill" transform="translate(3248 -18)" fill="#828282"/>
</g>
<g id="Vector">
<use xlink:href="#path1_fill" transform="translate(3252.5 -6.00005)" fill="#828282"/>
</g>
</g>
</g>
<defs>
<path id="path0_fill" d="M 26.7803 7.71975L 19.2803 0.219727C 19.1396 0.0791016 18.9492 0 18.75 0L 2.99995 0C 1.34543 0 0 1.34543 0 3.00002L 0 33C 0 34.6546 1.34543 36 3.00002 36L 24 36C 25.6546 36 27 34.6546 27 33L 27 8.24998C 27 8.05078 26.9209 7.86037 26.7803 7.71975ZM 19.5 2.56057L 24.4394 7.50002L 21 7.50002C 20.1731 7.50002 19.5 6.82692 19.5 6.00005L 19.5 2.56057ZM 25.5 33C 25.5 33.8269 24.8269 34.5 24 34.5L 3.00002 34.5C 2.17315 34.5 1.50005 33.8269 1.50005 33L 1.50005 3.00002C 1.50005 2.17315 2.17315 1.50005 3.00002 1.50005L 18 1.50005L 18 6.00005C 18 7.65457 19.3454 9 21 9L 25.5 9L 25.5 33Z"/>
<path id="path1_fill" d="M 12.8239 10.0174C 12.1296 9.47095 11.4697 8.90923 11.0303 8.46977C 10.459 7.89848 9.94992 7.34477 9.50759 6.81743C 10.1976 4.68534 10.5 3.58601 10.5 3.00002C 10.5 0.510539 9.60061 2.57492e-08 8.25005 2.57492e-08C 7.22391 2.57492e-08 6.00005 0.53318 6.00005 3.07181C 6.00005 4.19098 6.6131 5.54962 7.82817 7.1287C 7.53082 8.03616 7.18144 9.08283 6.78888 10.2627C 6.59988 10.8289 6.39485 11.3533 6.17801 11.8382C 6.00152 11.9166 5.8301 11.9964 5.66459 12.0791C 5.06841 12.3773 4.50225 12.6453 3.97709 12.8943C 1.58203 14.0281 0 14.7781 0 16.2591C 0 17.3343 1.16824 18 2.25 18C 3.64451 18 5.75023 16.1374 7.28831 12.9997C 8.88497 12.3699 10.8699 11.9033 12.4365 11.6111C 13.6919 12.5764 15.0784 13.5 15.75 13.5C 17.6096 13.5 18 12.4248 18 11.5232C 18 9.74995 15.9741 9.74995 15 9.74995C 14.6975 9.75002 13.886 9.83939 12.8239 10.0174ZM 2.25 16.5C 1.82152 16.5 1.53148 16.2979 1.49998 16.2591C 1.49998 15.7273 3.08566 14.9759 4.61939 14.2493C 4.71677 14.2032 4.8157 14.157 4.91604 14.1094C 3.78956 15.7428 2.67553 16.5 2.25 16.5ZM 7.50002 3.07181C 7.50002 1.50005 7.98785 1.50005 8.25005 1.50005C 8.78034 1.50005 9.00007 1.50005 9.00007 3.00002C 9.00007 3.31643 8.78913 4.10745 8.40312 5.34234C 7.81418 4.43559 7.50002 3.6585 7.50002 3.07181ZM 8.07497 11.1329C 8.12187 11.0025 8.16729 10.8707 8.21123 10.7374C 8.48953 9.90239 8.74005 9.15237 8.96344 8.47709C 9.27471 8.81986 9.61017 9.17072 9.96982 9.5303C 10.1104 9.67092 10.4591 9.98733 10.9235 10.3835C 9.999 10.585 9.0154 10.8347 8.07497 11.1329ZM 16.5 11.5232C 16.5 11.8602 16.5 12 15.8042 12.0045C 15.5999 11.9605 15.1275 11.6822 14.5444 11.2852C 14.7561 11.2618 14.9121 11.2501 15 11.2501C 16.1082 11.2501 16.4224 11.3584 16.5 11.5232Z"/>
</defs>
</svg>
