<svg width="19" height="19" viewBox="0 0 19 19" version="1.1" xmlns="http://www.w3.org/2000/svg" xmlns:xlink="http://www.w3.org/1999/xlink">
<title>search-icon</title>
<desc>Created using Figma</desc>
<g id="Canvas" transform="translate(-3512 331)">
<g id="search-icon" opacity="0.6">
<g id="Vector">
<use xlink:href="#path0_fill" transform="translate(3512 -331)" fill="#FFFFFF"/>
</g>
</g>
</g>
<defs>
<path id="path0_fill" fill-rule="evenodd" d="M 18.535 16.2896L 14.4074 12.162C 14.3854 12.1401 14.3597 12.1247 14.3368 12.1043C 15.1489 10.8723 15.623 9.39753 15.623 7.81156C 15.623 3.49734 12.1256 0 7.81149 0C 3.49734 0 0 3.49734 0 7.81149C 0 12.1256 3.49726 15.623 7.81141 15.623C 9.39745 15.623 10.8721 15.1489 12.1042 14.3368C 12.1246 14.3596 12.1398 14.3853 12.1618 14.4073L 16.2895 18.535C 16.9096 19.155 17.9149 19.155 18.535 18.535C 19.155 17.9149 19.155 16.9096 18.535 16.2896ZM 7.81149 12.915C 4.99282 12.915 2.70792 10.6301 2.70792 7.81149C 2.70792 4.99282 4.9929 2.70792 7.81149 2.70792C 10.63 2.70792 12.915 4.9929 12.915 7.81149C 12.915 10.6301 10.63 12.915 7.81149 12.915Z"/>
</defs>
</svg>
